<svg width="496" height="496" viewBox="90 80 336 336" fill="none" xmlns="http://www.w3.org/2000/svg"><circle cx="258" cy="248" r="168" fill="#000"/><path d="M357.336 262.002v29.278c-1.443 1.29-3.235 1.208-4.978 1.209-44.904.024-89.809.034-134.713-.007-6.026-.005-7.143-1.167-7.153-7.368-.045-25.392-.043-50.782-.001-76.174.01-6.342 1.116-7.446 7.458-7.453 34.147-.039 68.294-.013 102.442-.018 7.185-.001 7.191-.006 7.19-7.235-.001-4.753-.039-9.507.007-14.26.025-2.677-1.074-3.938-3.787-3.823-1.372.059-2.752-.008-4.127-.008-52.534-.001-105.069.002-157.603-.003-7.793-.001-7.882-.013-7.767-7.683.113-7.605-.498-15.223.338-22.817 66.564 0 133.127.02 199.691-.072 2.571-.003 3.088.503 3.078 3.075-.119 27.777-.075 55.554-.075 83.33-1.933 1.61-4.267 1.194-6.477 1.196-33.623.027-67.244.016-100.866.019-7.802.001-7.806.007-7.804 7.801.001 5.124-.067 10.249.028 15.372.07 3.8.558 4.244 4.401 4.396 2.373.093 4.749.03 7.124.03 32.372.002 64.745-.008 97.117.019 2.21.002 4.544-.416 6.477 1.196Z" fill="#E13022"/><path d="M357.41 347.158c-66.347 0-132.693-.021-199.04.064-3.077.004-4.188-.408-4.177-3.904.151-45.429.13-90.858.03-136.286-.006-2.91.716-3.711 3.659-3.618 7.141.225 14.299.21 21.442.012 3.262-.09 4.263.899 4.253 4.211-.117 36.244-.05 72.487-.126 108.731-.005 2.417.318 3.376 3.141 3.372 56.565-.093 113.129-.07 169.693-.074.376 0 .751-.041 1.126-.063l-.001 27.555Z" fill="#E13022"/></svg>