<svg width="66" height="66" fill="none" xmlns="http://www.w3.org/2000/svg"><path fill-rule="evenodd" clip-rule="evenodd" d="m33.01 2.044-15.946 9.488 5.863 3.506L33.01 9.054l10.083 5.984 5.863-3.506L33.01 2.044Zm10.084 17.95 5.863 3.505v7.01l-10.084 5.983V48.46l-5.862 3.505-5.863-3.505V36.492L17.064 30.51V23.5l5.863-3.506 10.084 5.983 10.083-5.983Zm5.863 15.47v7.011l-5.863 3.506V38.97l5.863-3.505Zm-5.922 15.472 10.084-5.983V32.987l5.863-3.505v18.977l-15.947 9.488v-7.01ZM53.12 21.021l-5.862-3.506 5.862-3.505 5.863 3.505v7.011l-5.863 3.505v-7.01ZM27.148 60.485v-7.01l5.863 3.505 5.862-3.505v7.01L33.01 63.99l-5.863-3.505Zm-4.221-14.504-5.863-3.506v-7.01l5.863 3.505v7.01ZM33.01 21.02l-5.863-3.506 5.863-3.505 5.862 3.505-5.862 3.506Zm-14.247-3.506-5.862 3.506v7.01l-5.863-3.505v-7.01l5.863-3.506 5.862 3.505ZM7.04 29.483l5.863 3.505v11.966l10.083 5.983v7.01L7.04 48.46V29.482Z" fill="#FFD039"/></svg>