<svg width="50" height="50" fill="none" xmlns="http://www.w3.org/2000/svg"><path d="M22.894 17.006a2.551 2.551 0 0 0-.141-.515 2.573 2.573 0 0 0-.425-.71c-.19-.234-.434-.407-.69-.566a.275.275 0 0 1-.112-.045c-.61-.354-1.22-.713-1.83-1.069-.833-.486-1.665-.975-2.5-1.46a2.802 2.802 0 0 0-1.124-.352 2.595 2.595 0 0 0-1.33.2c-.174.075-.334.175-.498.267l-2.535 1.425c-.557.314-1.12.616-1.67.942-.73.433-1.176 1.054-1.277 1.889-.01.085-.016.17-.016.255 0 1.722-.013 3.444.006 5.166.009.88.417 1.58 1.192 2.053.827.503 1.67.98 2.507 1.47l1.977 1.155a2.83 2.83 0 0 0 1.608.379c.438-.024.836-.169 1.213-.391 1.025-.605 2.059-1.197 3.088-1.794.05-.029.097-.062.157-.067.29-.17.581-.341.872-.51.501-.292 1-.586 1.503-.873.268-.152.544-.291.816-.436.576-.308 1.152-.614 1.728-.923.81-.435 1.623-.861 2.417-1.324.787-.459 1.586-.898 2.378-1.35.73-.415 1.455-.837 2.186-1.25.297-.169.587-.352.924-.447.169-.047.34-.082.512-.115.033-.016.072.004.105-.015l.098-.005c.122-.01.244-.01.365 0 .532.034.987.26 1.433.518.537.312 1.082.61 1.624.915.865.486 1.728.974 2.594 1.459.748.42 1.502.832 2.247 1.257.639.363 1.302.687 1.912 1.095.597.4.954.962 1.067 1.662.006.035.015.07.023.105.015.033-.003.07.014.104V34.933c0 .781-.294 1.437-.894 1.961-.227.199-.5.33-.762.478l-1.461.825c-.392.22-.787.436-1.18.656-.58.326-1.159.656-1.74.982-.654.366-1.31.728-1.964 1.094-.575.323-1.148.65-1.723.973a3.12 3.12 0 0 1-.472.215c-.12.044-.243.069-.375.066-.37-.005-.74-.016-1.11.003-.307.016-.558-.104-.808-.24-.323-.177-.642-.36-.963-.54-.313-.175-.625-.352-.938-.528-.312-.176-.624-.353-.937-.528-.316-.177-.633-.352-.95-.528l-.962-.54-.938-.529-1.111-.62-1.169-.659c-.249-.14-.507-.267-.74-.433a2.563 2.563 0 0 1-.918-1.163 2.35 2.35 0 0 1-.144-.566c-.018-.039.006-.083-.016-.121 0-1.151 0-2.303-.003-3.454 0-.093.03-.141.115-.188.671-.372 1.339-.752 2.009-1.127.543-.305 1.089-.608 1.633-.91l.28-.154v1.172c.037.043.023.093.024.141 0 .676-.007 1.352.002 2.027.009.574.217 1.081.587 1.53.262.32.614.521.97.72.644.359 1.285.721 1.928 1.082.778.436 1.55.881 2.334 1.306.322.174.679.259 1.049.296.394.04.77-.018 1.139-.143.13-.044.25-.103.367-.17.99-.567 1.977-1.137 2.965-1.707.516-.297 1.042-.577 1.543-.897.66-.422 1.04-1.021 1.147-1.779.018-.129.03-.26.029-.392-.002-1.663.003-3.325-.003-4.988-.002-.7-.263-1.306-.773-1.807-.214-.21-.478-.354-.74-.5-.776-.433-1.549-.87-2.323-1.305-.649-.364-1.287-.747-1.948-1.087-.819-.42-1.666-.47-2.509-.053-.36.178-.7.389-1.05.585-1.064.599-2.129 1.197-3.193 1.797-.947.533-1.896 1.063-2.842 1.597-.042.024-.088.032-.131.047-.28.154-.561.307-.84.463a2381.802 2381.802 0 0 0-3.06 1.716l-1.845 1.037-1.757.988c-.357.2-.708.412-1.071.6-.291.15-.609.239-.939.277-.034.015-.073-.003-.107.014l-.198.006a.184.184 0 0 1-.1 0l-.178-.006c-.034-.017-.073.001-.107-.014l-.263-.044c-.132 0-.249-.053-.367-.1-.331-.13-.626-.326-.934-.497-1.034-.577-2.066-1.158-3.098-1.737-.742-.416-1.484-.832-2.226-1.25-.856-.48-1.718-.952-2.569-1.441-.649-.374-1.08-.915-1.255-1.636a1.316 1.316 0 0 1-.03-.311c-.006-.044.01-.09-.011-.132v-9.92c.02-.03.005-.065.01-.098.007-.402.167-.753.39-1.08.216-.317.515-.54.855-.725.648-.353 1.285-.723 1.926-1.085l2.9-1.64c1.273-.72 2.548-1.44 3.82-2.162.18-.102.376-.169.574-.227a.459.459 0 0 1 .131-.013h1.324c.22.001.406.103.587.205.783.44 1.564.884 2.345 1.329.456.26.912.518 1.37.776.032.019.064.036.08.072.344.198.687.398 1.032.594.807.46 1.613.92 2.421 1.377.448.253.905.491 1.338.768.548.35.905.84 1.082 1.45.034.118.05.242.075.363.018.04-.004.084.016.123l-.001.206.001 3.324c0 .073-.02.112-.09.15-.366.2-.726.409-1.09.612-.363.204-.73.403-1.093.606l-1.738.977c-.016.004-.027-.002-.028-.017-.003-.03-.001-.06-.001-.089v-3.35c0-.036.008-.072-.01-.107 0-.025-.002-.05-.004-.075-.017-.032.005-.07-.016-.101Z" fill="#8046E3" style="mix-blend-mode:multiply"/></svg>