<svg width="80" height="81" fill="none" xmlns="http://www.w3.org/2000/svg"><g fill-rule="evenodd" clip-rule="evenodd"><path d="M0 40.043c0 22.091 17.908 40 40 40 22.09 0 40-17.909 40-40s-17.91-40-40-40c-22.092 0-40 17.909-40 40Z" fill="#0C0C4F"/><path d="m22.356 30.62.987-3.05c.2-.621.69-1.104 1.313-1.294l3.066-.943c.424-.13.428-.728.007-.865l-3.052-.987c-.62-.2-1.102-.69-1.293-1.313l-.942-3.066c-.13-.423-.728-.428-.865-.005l-.987 3.05c-.2.62-.69 1.102-1.313 1.294l-3.066.941a.453.453 0 0 0-.007.865l3.052.987a2 2 0 0 1 1.294 1.315l.941 3.064c.13.424.728.429.865.007Z" fill="#FAFAFA"/><path d="M70.803 28.844c-1.264-1.413-3.237-2.209-5.154-2.535a17.71 17.71 0 0 0-5.867.055c-3.861.653-7.369 2.252-10.427 4.223-1.59.968-2.944 2.088-4.347 3.229-.677.577-1.293 1.191-1.935 1.796l-1.755 1.746c-1.906 1.993-3.785 3.808-5.604 5.313-1.825 1.497-3.532 2.634-5.214 3.429-1.68.798-3.48 1.267-5.823 1.343-2.324.082-5.073-.338-8.014-1.03-2.956-.69-6.06-1.671-9.53-2.517 1.21 3.359 3.033 6.326 5.374 9.04 2.367 2.665 5.324 5.095 9.123 6.693 3.743 1.633 8.447 2.22 12.846 1.335 4.41-.85 8.28-2.89 11.409-5.25 3.136-2.385 5.674-5.1 7.813-7.924.59-.78.903-1.217 1.33-1.827l1.181-1.75c.821-1.082 1.569-2.314 2.381-3.386 1.593-2.246 3.163-4.489 4.988-6.555.919-1.049 1.887-2.051 3.03-3.015.57-.47 1.187-.93 1.87-1.345a8.861 8.861 0 0 1 2.325-1.068Z" fill="url(#a)"/><path d="M70.803 28.844c-1.358-3.426-3.882-6.31-7.27-8.438-3.367-2.104-8.044-3.178-12.678-2.262a20.764 20.764 0 0 0-6.454 2.43 26.987 26.987 0 0 0-5.177 3.952c-.75.732-1.431 1.497-2.108 2.265l-1.754 2.236-2.709 3.6c-3.453 4.63-7.172 10.058-13.274 11.666-5.991 1.579-8.59.18-12.246-.397.668 1.726 1.497 3.402 2.62 4.877 1.101 1.505 2.403 2.918 4.02 4.13.818.581 1.682 1.155 2.64 1.642.955.47 1.984.885 3.083 1.197 2.185.599 4.645.808 7.027.486a21.14 21.14 0 0 0 6.653-2.076c2.006-.994 3.753-2.204 5.313-3.481 3.102-2.576 5.514-5.422 7.552-8.298a58.821 58.821 0 0 0 2.816-4.37l1.013-1.745c.31-.51.623-1.023.94-1.501 1.284-1.92 2.54-3.46 4.064-4.616 1.503-1.186 3.597-2.062 6.394-2.266 2.786-.206 6.002.175 9.535.97Z" fill="#FAFAFA"/><path d="M55.734 57.308a4.556 4.556 0 1 0 9.111 0 4.556 4.556 0 1 0-9.111 0Z" fill="#EC796B"/></g><defs><linearGradient id="a" x1="70.462" y1="27.642" x2="-33.59" y2="81.778" gradientUnits="userSpaceOnUse"><stop stop-color="#EC796B"/><stop offset="1" stop-color="#D672EF"/></linearGradient></defs></svg>