<svg xmlns="http://www.w3.org/2000/svg" width="42" height="42" viewBox="8 8 26 26" fill="none"><path fill-rule="evenodd" clip-rule="evenodd" d="M21 33.6c6.96 0 12.6-5.642 12.6-12.6 0-6.96-5.64-12.6-12.6-12.6-6.958 0-12.6 5.64-12.6 12.6 0 3.17 1.172 6.068 3.106 8.283l6.405-5.94c.25-.359.454-.749.605-1.161l-3.638-.54c-.43-.064-.43-.683 0-.747l3.268-.486-3.783-5.104c-.258-.348.18-.786.528-.528l5.105 3.784.486-3.27c.064-.429.682-.429.746 0l.486 3.269 5.103-3.783c.348-.258.786.18.527.528l-3.783 5.104 3.27.486c.43.064.43.683 0 .746l-3.27.486 3.783 5.104c.259.348-.179.786-.527.528l-5.103-3.782-.486 3.268c-.064.43-.682.43-.746 0l-.544-3.659a3.157 3.157 0 0 0-.962.483l-6.08 6.578A12.55 12.55 0 0 0 21 33.6Z" fill="url(#a)"/><defs><linearGradient id="a" x1="2.5" y1="3" x2="42" y2="32" gradientUnits="userSpaceOnUse"><stop stop-color="#2A2CBF"/><stop offset="1" stop-color="#AA68FF"/></linearGradient></defs></svg>