<svg width="52" height="53" fill="none" xmlns="http://www.w3.org/2000/svg"><path fill-rule="evenodd" clip-rule="evenodd" d="M52 26.53c0 14.359-11.64 26-26 26s-26-11.641-26-26c0-14.36 11.64-26 26-26s26 11.64 26 26ZM18.632 36.874h-5.046c-1.06 0-1.584 0-1.903-.204a1.283 1.283 0 0 1-.581-1.003c-.02-.377.243-.837.766-1.756l12.46-21.96c.53-.933.798-1.4 1.136-1.572a1.286 1.286 0 0 1 1.163 0c.338.172.607.639 1.137 1.571l2.56 4.471.014.023c.572 1 .863 1.508.99 2.04.14.582.14 1.195 0 1.776-.128.537-.416 1.048-.997 2.063l-6.544 11.569-.017.03c-.576 1.008-.869 1.52-1.273 1.905-.441.421-.971.728-1.552.9-.53.148-1.125.147-2.313.147Zm12.743.001h7.23c1.067 0 1.603 0 1.923-.21.345-.224.562-.601.581-1.01.018-.364-.238-.806-.74-1.673l-.052-.09-3.622-6.195-.04-.07c-.51-.86-.767-1.295-1.096-1.463a1.272 1.272 0 0 0-1.156 0c-.333.172-.601.626-1.131 1.539L29.663 33.9l-.012.02c-.529.913-.793 1.368-.773 1.742.025.41.236.786.58 1.01.314.204.85.204 1.917.204Z" fill="#fff"/></svg>