<svg width="24" height="24" fill="none" xmlns="http://www.w3.org/2000/svg"><circle cx="12" cy="12" r="12" fill="#F7931A"/><g clip-path="url(#a)"><path d="M6.736 16.2H5.424L5 18.188h3.857V21h1.774v-2.813h1.427V21h1.813v-2.813c2.314 0 4.705-.712 5.052-3.337a2.7 2.7 0 0 0-.364-2.262 2.819 2.819 0 0 0-.858-.821 2.906 2.906 0 0 0-1.13-.404 2.602 2.602 0 0 0 1.31-1.111 2.49 2.49 0 0 0 .31-1.665c0-1.95-1.93-2.662-4.243-2.85V3h-1.852v2.7H10.67V3H8.857v2.7H5.27v1.725h1.234c.733 0 .964.413 1.003.75v7.5a.752.752 0 0 1-.294.39.787.787 0 0 1-.477.135Zm3.856-8.587c1.003 0 4.204-.263 4.127 1.687-.077 1.95-3.124 1.65-4.127 1.612v-3.3Zm0 4.987c1.196 0 4.86-.262 4.783 1.875-.078 2.138-3.587 1.8-4.783 1.8V12.6Z" fill="#fff"/></g><defs><clipPath id="a"><path fill="#fff" transform="translate(5 3)" d="M0 0h14v18H0z"/></clipPath></defs></svg>