<svg width="20" height="20" fill="none" xmlns="http://www.w3.org/2000/svg"><path d="m12.171 9.164 1.415-2.492 3.815 6.166.002 1.183-.013-8.143a.618.618 0 0 0-.273-.488l-6.868-4.1a.585.585 0 0 0-.586.04l-.024.015-6.667 4.01-.026.011a.601.601 0 0 0-.335.449.655.655 0 0 0-.009.072l.01 6.636 3.554-5.716c.447-.758 1.422-1.002 2.327-.989l1.062.03-6.258 10.414.738.44 6.332-10.844 2.8-.01L6.85 16.965l2.632 1.571.315.188c.133.056.29.059.424.009l6.964-4.189-1.331.801-3.683-6.181Zm.54 8.071-2.658-4.33 1.622-2.858 3.492 5.711-2.456 1.477Z" fill="#2D374B"/><path d="m10.052 12.905 2.659 4.33 2.455-1.477-3.491-5.71-1.623 2.857ZM17.403 14.021l-.002-1.183-3.815-6.166-1.415 2.492 3.683 6.18 1.331-.8a.62.62 0 0 0 .218-.446v-.077Z" fill="#28A0F0"/><path d="m1.417 15.137 1.88 1.125L9.555 5.848l-1.062-.03c-.905-.013-1.88.231-2.327.99l-3.554 5.715-1.195 1.906v.708ZM13.166 5.848l-2.799.01-6.332 10.844 2.213 1.323.602-1.06 6.316-11.117Z" fill="#fff"/><path d="M18.583 5.833a1.864 1.864 0 0 0-.837-1.488L10.788.193a1.75 1.75 0 0 0-1.596 0C9.133.222 2.425 4.26 2.425 4.26a1.855 1.855 0 0 0-1.007 1.568v8.6l1.195-1.906-.01-6.636a.632.632 0 0 1 .245-.461c.032-.024 6.855-4.122 6.877-4.134a.585.585 0 0 1 .524-.002l6.868 4.1c.163.107.265.29.274.488v8.22a.608.608 0 0 1-.205.446l-1.332.8-.687.414-2.456 1.477-2.49 1.498a.583.583 0 0 1-.424-.009l-2.946-1.759-.602 1.06 2.648 1.582a75.266 75.266 0 0 0 .42.243c.188.095.459.15.703.15.223 0 .441-.043.648-.127l7.233-4.347c.415-.334.66-.837.682-1.383v-8.31Z" fill="#96BEDC"/></svg>