<svg width="24" height="24" fill="none" xmlns="http://www.w3.org/2000/svg"><path d="M24 12c0 6.627-5.373 12-12 12S0 18.627 0 12 5.373 0 12 0s12 5.373 12 12Z" fill="#EAC38C"/><path d="m12.423 16.924-.673-1.795h6.506l.898.674.672 1.01v1.345l-.672 1.234-1.459.449h-6.73l1.233-1.458.225-1.459Z" fill="#EAC38C"/><path fill-rule="evenodd" clip-rule="evenodd" d="M17.583 15.69h-7.516V14.57h7.516a2.917 2.917 0 0 1 0 5.833H9.955V19.28h7.628a1.795 1.795 0 1 0 0-3.59ZM6.757 4.922a2.635 2.635 0 0 0-2.635 2.634v.42a2.89 2.89 0 0 0 2.16 2.797A.56.56 0 0 1 6 11.86 4.012 4.012 0 0 1 3 7.976v-.42A3.757 3.757 0 0 1 6.757 3.8h10.892c.893 0 1.617.724 1.617 1.617v8.03a.56.56 0 1 1-1.122 0v-8.03a.496.496 0 0 0-.495-.495H6.757Z" fill="#000"/><path fill-rule="evenodd" clip-rule="evenodd" d="M7.038 7.726h-1.01V6.604h1.083c.58 0 1.049.47 1.049 1.049v9.72c0 1.054.854 1.908 1.907 1.908h.112a1.795 1.795 0 0 0 0-3.59h-.112v.887a.018.018 0 0 0 .01.01h.663v1.122h-.657c-.629 0-1.138-.51-1.138-1.138v-1.166c0-.462.374-.837.836-.837h.398a2.917 2.917 0 0 1 0 5.834h-.112a3.029 3.029 0 0 1-3.03-3.03V7.727Z" fill="#000"/><path fill-rule="evenodd" clip-rule="evenodd" d="M14.977 12.774H9.619v-1.122h5.358a.561.561 0 0 1 0 1.122ZM14.977 7.839H9.619V6.717h5.358a.56.56 0 0 1 0 1.122ZM16.125 10.306H9.62V9.184h6.506a.56.56 0 0 1 0 1.122Z" fill="#000"/></svg>