<svg width="24" height="24" fill="none" xmlns="http://www.w3.org/2000/svg"><path d="M19.597 5.414c-1.976-.908-4.535-1.393-4.535-1.393l-.55 1.234a5.043 5.043 0 0 0-.607-.103 15.449 15.449 0 0 0-3.73-.013 5.02 5.02 0 0 0-.61.098L9.026 4s-2.562.467-4.545 1.36c0 0-4.372 5.61-3.315 12.402 0 0 3.065 2.217 5.542 2.701l1.3-1.862s-1.535-.62-1.967-.924l.503-.344s.849.619 2.934.999c1.659.303 3.363.31 5.024.018 2.088-.366 2.942-.978 2.942-.978l.5.346c-.434.302-1.973.91-1.973.91l1.286 1.872c2.481-.466 5.562-2.662 5.562-2.662 1.11-6.784-3.221-12.424-3.221-12.424Zm-11.12 9.77c-1.133-.004-2.048-.98-2.044-2.178.005-1.2.927-2.168 2.06-2.165 1.135.005 2.05.98 2.045 2.179-.004 1.199-.927 2.168-2.06 2.164Zm7.049.025c-1.134-.004-2.049-.98-2.045-2.178.005-1.2.927-2.168 2.061-2.164 1.134.003 2.049.979 2.045 2.178-.004 1.199-.927 2.168-2.061 2.164Z" fill="#fff"/></svg>