<svg width="24" height="24" fill="none" xmlns="http://www.w3.org/2000/svg"><path d="M24 4.368c-.892.401-1.843.667-2.835.797a4.997 4.997 0 0 0 2.165-2.79 9.685 9.685 0 0 1-3.12 1.222A4.874 4.874 0 0 0 16.614 2C13.893 2 11.7 4.268 11.7 7.048c0 .4.033.784.114 1.15C7.721 7.994 4.103 5.983 1.67 2.92a5.18 5.18 0 0 0-.673 2.55c0 1.748.877 3.298 2.185 4.195A4.766 4.766 0 0 1 .96 9.043v.055c0 2.453 1.706 4.49 3.942 4.959-.4.112-.837.166-1.29.166-.315 0-.633-.018-.932-.086.638 1.998 2.447 3.468 4.598 3.515a9.73 9.73 0 0 1-6.1 2.153c-.404 0-.791-.019-1.178-.07A13.602 13.602 0 0 0 7.548 22c9.054 0 14.004-7.692 14.004-14.36 0-.223-.008-.438-.018-.652A9.958 9.958 0 0 0 24 4.368Z" fill="#fff"/></svg>