<svg width="60" height="60" fill="none" xmlns="http://www.w3.org/2000/svg"><path d="M52.488 29.993c0-12.244-10.07-22.17-22.493-22.17-7.363 0-13.9 3.487-18.003 8.877" stroke="#08090A" stroke-width="3.5"/><path d="M10.75 8.5v8.75h8.75M7.492 29.993c0 12.244 10.07 22.17 22.493 22.17 7.363 0 13.9-3.488 18.003-8.878" stroke="#08090A" stroke-width="3.5"/><path d="M39.785 42.66h8.75v8.75" stroke="#08090A" stroke-width="3.5"/><path d="M35.79 22.871h-8.81a3.563 3.563 0 0 0-3.562 3.563v0a3.563 3.563 0 0 0 3.563 3.563h3.462" stroke="#08090A" stroke-width="3.5" stroke-linecap="square"/><path d="M31.344 31.747a1.75 1.75 0 1 1 0-3.5v3.5Zm-7.102 7.126h-1.75v-3.5h1.75v3.5Zm8.808-7.126h-1.706v-3.5h1.706v3.5Zm-8.808 3.626h1.787v3.5h-1.787v-3.5Zm1.787 0h7.021v3.5H26.03v-3.5Zm12.334-1.813a5.313 5.313 0 0 1-5.313 5.313v-3.5a1.813 1.813 0 0 0 1.813-1.813h3.5Zm-3.5 0a1.813 1.813 0 0 0-1.813-1.813v-3.5a5.313 5.313 0 0 1 5.313 5.313h-3.5Z" fill="#08090A"/><path d="M30.016 22.868v-4.75M30.016 41.872v-4.75" stroke="#08090A" stroke-width="3.5"/></svg>